<svg width="112" height="24" viewBox="0 0 112 24" fill="none" xmlns="http://www.w3.org/2000/svg">
<g clip-path="url(#clip0_15_138)">
<path d="M20.3178 4.36056C18.7617 3.64593 17.1195 3.13618 15.4323 2.84406C15.417 2.84149 15.4013 2.84371 15.3873 2.85042C15.3733 2.85714 15.3618 2.86802 15.3543 2.88156C15.1428 3.25656 14.9088 3.74706 14.7453 4.13106C12.9266 3.8553 11.0769 3.8553 9.25825 4.13106C9.07664 3.70294 8.87029 3.28573 8.64025 2.88156C8.63272 2.86802 8.62118 2.85714 8.60721 2.85042C8.59324 2.84371 8.57754 2.84149 8.56225 2.84406C6.87475 3.13506 5.23225 3.64506 3.67675 4.36056C3.66338 4.36553 3.65221 4.3751 3.64525 4.38756C0.534253 9.03606 -0.319247 13.5706 0.0992533 18.0481C0.102253 18.0701 0.112753 18.0886 0.130753 18.1036C1.94271 19.4449 3.9689 20.4694 6.12325 21.1336C6.13847 21.1384 6.15481 21.1382 6.16992 21.1331C6.18502 21.1279 6.1981 21.1181 6.20725 21.1051C6.67025 20.4751 7.07925 19.8106 7.43425 19.1116C7.44163 19.0972 7.44416 19.0808 7.44145 19.0648C7.43875 19.0489 7.43096 19.0342 7.41925 19.0231L7.39225 19.0066C6.74629 18.7575 6.12045 18.4591 5.52025 18.1141C5.5035 18.1046 5.49104 18.089 5.48545 18.0706C5.47987 18.0521 5.48159 18.0323 5.49025 18.0151L5.51275 17.9866C5.63975 17.8916 5.76375 17.7941 5.88475 17.6941C5.89535 17.6855 5.90807 17.6801 5.92155 17.6782C5.93502 17.6764 5.94875 17.6782 5.96125 17.6836C9.88975 19.4776 14.1423 19.4776 18.0228 17.6836C18.0356 17.6776 18.05 17.6754 18.064 17.6773C18.0781 17.6792 18.0914 17.685 18.1023 17.6941C18.2233 17.7941 18.3473 17.8916 18.4743 17.9866C18.4848 17.9938 18.4933 18.0036 18.499 18.015C18.5047 18.0265 18.5074 18.0392 18.5068 18.052C18.5062 18.0648 18.5024 18.0772 18.4956 18.088C18.4889 18.0989 18.4794 18.1079 18.4683 18.1141C17.8706 18.4646 17.2438 18.7627 16.5948 19.0051C16.5844 19.0088 16.575 19.0148 16.5672 19.0226C16.5595 19.0303 16.5535 19.0397 16.5498 19.0501C16.5461 19.06 16.5446 19.0707 16.5454 19.0813C16.5462 19.0919 16.5492 19.1022 16.5543 19.1116C16.9143 19.8091 17.3268 20.4751 17.7798 21.1051C17.7889 21.1181 17.802 21.1279 17.8171 21.1331C17.8322 21.1382 17.8485 21.1384 17.8638 21.1336C20.0224 20.4731 22.0521 19.4483 23.8653 18.1036C23.8743 18.0972 23.8818 18.0889 23.8872 18.0793C23.8926 18.0697 23.8959 18.0591 23.8968 18.0481C24.3978 12.8716 23.0583 8.37456 20.3478 4.38906C20.3454 4.38226 20.3414 4.37612 20.3362 4.37116C20.331 4.3662 20.3247 4.36256 20.3178 4.36056ZM8.02075 15.3211C6.83725 15.3211 5.86375 14.2351 5.86375 12.9031C5.86375 11.5711 6.81925 10.4836 8.02075 10.4836C9.23125 10.4836 10.1958 11.5786 10.1778 12.9031C10.1778 14.2351 9.22225 15.3211 8.02075 15.3211ZM15.9948 15.3211C14.8128 15.3211 13.8378 14.2351 13.8378 12.9031C13.8378 11.5711 14.7933 10.4836 15.9948 10.4836C17.2053 10.4836 18.1713 11.5786 18.1518 12.9031C18.1518 14.2351 17.2053 15.3211 15.9948 15.3211Z" fill="white"/>
</g>
<path d="M37.84 14.75H34.852L34.312 17H31L34.312 6.74H38.542L41.71 17H38.38L37.84 14.75ZM36.328 8.954L35.266 12.752H37.408L36.4 8.954H36.328ZM49.1391 14.192C49.1391 15.26 48.7971 16.028 48.1131 16.496C47.4411 16.964 46.4811 17.198 45.2331 17.198C44.3571 17.198 43.3491 17.072 42.2091 16.82C42.2331 16.58 42.2871 16.238 42.3711 15.794C42.4671 15.338 42.5451 14.99 42.6051 14.75C43.0371 14.822 43.5171 14.882 44.0451 14.93C44.5731 14.966 45.0231 14.984 45.3951 14.984C45.7191 14.984 45.9171 14.966 45.9891 14.93C46.0011 14.918 46.0131 14.888 46.0251 14.84C46.0491 14.78 46.0611 14.72 46.0611 14.66C46.0611 14.42 45.9111 14.258 45.6111 14.174C45.5151 14.15 45.1491 14.048 44.5131 13.868C43.8771 13.688 43.3551 13.364 42.9471 12.896C42.5511 12.416 42.3531 11.822 42.3531 11.114C42.3531 10.742 42.4371 10.328 42.6051 9.872C42.7731 9.416 42.9531 9.128 43.1451 9.008C43.2891 8.912 43.6371 8.816 44.1891 8.72C44.7411 8.612 45.2511 8.558 45.7191 8.558C46.7151 8.558 47.7171 8.63 48.7251 8.774C48.7251 8.99 48.6951 9.356 48.6351 9.872C48.5751 10.376 48.5211 10.694 48.4731 10.826C47.4531 10.694 46.6311 10.628 46.0071 10.628C45.6831 10.628 45.4731 10.646 45.3771 10.682C45.3531 10.694 45.3291 10.73 45.3051 10.79C45.2811 10.838 45.2691 10.904 45.2691 10.988C45.2691 11.156 45.3231 11.276 45.4311 11.348C45.5391 11.432 45.8211 11.534 46.2771 11.654C46.8171 11.81 47.2791 11.972 47.6631 12.14C48.0591 12.308 48.4011 12.56 48.6891 12.896C48.9891 13.232 49.1391 13.664 49.1391 14.192ZM58.7279 8.72L56.5679 15.65C56.1479 16.982 55.7699 17.948 55.4339 18.548C55.0979 19.16 54.7619 19.586 54.4259 19.826C54.2339 19.958 53.9279 20.06 53.5079 20.132C53.0999 20.204 52.6559 20.24 52.1759 20.24C51.4559 20.24 50.8799 20.174 50.4479 20.042C50.4359 19.754 50.4479 19.4 50.4839 18.98C50.5199 18.572 50.5679 18.224 50.6279 17.936C51.1319 17.96 51.6239 17.972 52.1039 17.972C52.4639 17.972 52.7339 17.966 52.9139 17.954C53.0939 17.606 53.2619 17.24 53.4179 16.856L52.1759 16.784L49.4039 8.72H52.6619L54.1019 14.516L54.1199 14.858H54.1739L55.4699 8.72H58.7279ZM67.4511 9.242C67.5591 9.374 67.6371 9.704 67.6851 10.232C67.7451 10.76 67.7751 11.564 67.7751 12.644V17H64.6971V12.68V11.942C64.6971 11.558 64.6671 11.318 64.6071 11.222C64.5111 11.102 64.2891 11.042 63.9411 11.042C63.7731 11.042 63.6471 11.048 63.5631 11.06C63.2271 11.072 62.8791 11.15 62.5191 11.294V17H59.4411V8.72H61.9431L62.2851 10.106C63.1491 9.062 64.1811 8.54 65.3811 8.54C65.8131 8.54 66.2151 8.6 66.5871 8.72C66.9711 8.84 67.2591 9.014 67.4511 9.242ZM76.163 16.748C75.191 17.072 74.105 17.234 72.905 17.234C71.561 17.234 70.553 16.898 69.881 16.226C69.221 15.542 68.891 14.48 68.891 13.04C68.891 12.332 68.987 11.636 69.179 10.952C69.371 10.256 69.575 9.788 69.791 9.548C70.043 9.272 70.535 9.038 71.267 8.846C72.011 8.654 72.779 8.558 73.571 8.558C74.399 8.558 75.233 8.63 76.073 8.774C76.049 9.074 76.007 9.428 75.947 9.836C75.899 10.232 75.845 10.586 75.785 10.898C75.041 10.85 74.339 10.826 73.679 10.826C73.031 10.826 72.617 10.862 72.437 10.934C72.341 10.97 72.251 11.216 72.167 11.672C72.095 12.128 72.059 12.554 72.059 12.95C72.059 13.478 72.131 13.886 72.275 14.174C72.431 14.45 72.671 14.642 72.995 14.75C73.319 14.858 73.757 14.912 74.309 14.912C74.549 14.912 75.077 14.888 75.893 14.84L76.163 16.748ZM86.321 11.312V16.442C85.517 16.706 84.755 16.898 84.035 17.018C83.315 17.138 82.709 17.198 82.217 17.198C80.585 17.198 79.307 16.772 78.383 15.92C77.459 15.068 76.997 13.76 76.997 11.996C76.997 10.196 77.483 8.852 78.455 7.964C79.427 7.064 80.795 6.614 82.559 6.614C83.483 6.614 84.593 6.752 85.889 7.028C85.889 7.268 85.865 7.628 85.817 8.108C85.769 8.576 85.721 8.906 85.673 9.098L85.025 9.08C84.233 9.056 83.615 9.044 83.171 9.044C81.839 9.044 81.113 9.122 80.993 9.278C80.801 9.506 80.663 9.86 80.579 10.34C80.507 10.82 80.471 11.282 80.471 11.726C80.471 12.53 80.561 13.154 80.741 13.598C80.921 14.042 81.197 14.354 81.569 14.534C81.941 14.714 82.445 14.804 83.081 14.804H83.153V11.312H86.321ZM92.6212 17L92.3332 15.866C91.7812 16.766 91.0132 17.216 90.0292 17.216C89.2252 17.216 88.5652 16.994 88.0492 16.55C87.5452 16.094 87.2932 15.458 87.2932 14.642C87.2932 14.138 87.4372 13.7 87.7252 13.328C88.0252 12.944 88.4332 12.674 88.9492 12.518C89.6212 12.326 90.6592 12.218 92.0632 12.194C92.0632 11.402 92.0272 10.982 91.9552 10.934C91.8952 10.886 91.7032 10.862 91.3792 10.862C91.1752 10.862 90.8932 10.874 90.5332 10.898C89.9572 10.922 89.1772 10.988 88.1932 11.096C88.0972 10.448 88.0252 9.752 87.9772 9.008C88.6132 8.876 89.2792 8.768 89.9752 8.684C90.6712 8.588 91.2952 8.54 91.8472 8.54C92.8072 8.54 93.5272 8.702 94.0072 9.026C94.4872 9.338 94.7992 9.752 94.9432 10.268C95.0872 10.784 95.1532 11.438 95.1412 12.23L95.1232 14.876L95.1772 17H92.6212ZM91.0732 15.2C91.3852 15.2 91.7152 15.14 92.0632 15.02V13.688H91.9192C91.0312 13.688 90.5392 13.736 90.4432 13.832C90.3832 13.892 90.3352 13.982 90.2992 14.102C90.2752 14.222 90.2632 14.336 90.2632 14.444C90.2632 14.732 90.3292 14.93 90.4612 15.038C90.5932 15.146 90.7972 15.2 91.0732 15.2ZM100.347 13.598C100.347 13.814 100.353 14.042 100.365 14.282C100.377 14.51 100.413 14.654 100.473 14.714C100.557 14.798 100.851 14.84 101.355 14.84L101.967 14.822C102.075 15.398 102.129 16.064 102.129 16.82C101.901 16.904 101.565 16.982 101.121 17.054C100.689 17.126 100.275 17.162 99.879 17.162C99.051 17.162 98.409 16.982 97.953 16.622C97.509 16.25 97.287 15.68 97.287 14.912V10.484H95.937V8.846L97.287 8.72L98.097 6.74L100.347 6.614V8.72H102.255V10.484H100.347V13.598ZM108.198 14.84C108.498 14.84 109.056 14.81 109.872 14.75C109.98 14.75 110.178 14.738 110.466 14.714L110.736 16.568C109.812 17 108.612 17.216 107.136 17.216C105.756 17.216 104.694 16.868 103.95 16.172C103.218 15.476 102.852 14.426 102.852 13.022C102.852 12.302 102.942 11.606 103.122 10.934C103.314 10.262 103.53 9.794 103.77 9.53C104.022 9.266 104.49 9.038 105.174 8.846C105.858 8.654 106.536 8.558 107.208 8.558C108.288 8.558 109.098 8.75 109.638 9.134C110.178 9.518 110.532 10.052 110.7 10.736C110.868 11.408 110.952 12.314 110.952 13.454C110.136 13.502 109.338 13.526 108.558 13.526H106.002C106.002 13.91 106.08 14.198 106.236 14.39C106.404 14.582 106.638 14.708 106.938 14.768C107.238 14.816 107.658 14.84 108.198 14.84ZM106.182 10.7C106.11 10.736 106.056 10.892 106.02 11.168C105.984 11.444 105.96 11.756 105.948 12.104H106.884C107.448 12.104 107.856 12.098 108.108 12.086C108.108 11.51 108.024 11.102 107.856 10.862C107.7 10.622 107.424 10.502 107.028 10.502C106.704 10.502 106.422 10.568 106.182 10.7Z" fill="white"/>
<defs>
<clipPath id="clip0_15_138">
<rect width="24" height="24" fill="white"/>
</clipPath>
</defs>
</svg>
