<?xml version="1.0" standalone="no"?>
<!DOCTYPE svg PUBLIC "-//W3C//DTD SVG 20010904//EN"
 "http://www.w3.org/TR/2001/REC-SVG-20010904/DTD/svg10.dtd">
<svg version="1.0" xmlns="http://www.w3.org/2000/svg"
 width="163.000000pt" height="164.000000pt" viewBox="0 0 163.000000 164.000000"
 preserveAspectRatio="xMidYMid meet">

<g transform="translate(0.000000,164.000000) scale(0.100000,-0.100000)"
fill="#000000" stroke="none">
<path d="M10 1470 l0 -150 150 0 150 0 0 150 0 150 -150 0 -150 0 0 -150z
m260 0 l0 -110 -110 0 -110 0 0 103 c0 57 3 107 7 110 3 4 53 7 110 7 l103 0
0 -110z"/>
<path d="M100 1465 l0 -66 63 3 62 3 3 63 3 62 -66 0 -65 0 0 -65z"/>
<path d="M400 1600 c0 -13 -7 -20 -20 -20 -18 0 -20 -7 -20 -65 0 -58 2 -65
20 -65 17 0 20 -7 20 -45 0 -38 -3 -45 -20 -45 -18 0 -20 -7 -20 -85 l0 -85
-45 0 c-38 0 -45 3 -45 20 0 13 7 20 20 20 13 0 20 7 20 20 0 13 -7 20 -20 20
-13 0 -20 -7 -20 -20 0 -13 -7 -20 -20 -20 -13 0 -20 -7 -20 -20 0 -13 7 -20
20 -20 15 0 20 -7 20 -25 0 -18 -5 -25 -20 -25 -13 0 -20 -7 -20 -20 0 -15 -7
-20 -25 -20 -24 0 -25 2 -25 65 l0 65 -39 0 c-40 0 -40 0 -43 -42 -2 -36 -7
-44 -25 -46 -15 -2 -23 -10 -23 -23 0 -12 -7 -19 -20 -19 -13 0 -20 -7 -20
-20 0 -18 7 -20 65 -20 l65 0 0 -45 c0 -38 -3 -45 -20 -45 -13 0 -20 7 -20 20
0 17 -7 20 -45 20 l-45 0 0 -40 0 -40 45 0 c38 0 45 -3 45 -20 0 -16 8 -19 63
-22 56 -3 62 -5 65 -25 2 -15 10 -23 23 -23 12 0 19 -7 19 -20 0 -13 -7 -20
-20 -20 -13 0 -20 -7 -20 -20 0 -13 7 -20 20 -20 13 0 20 7 20 20 0 17 7 20
45 20 l45 0 0 -65 c0 -58 2 -65 20 -65 17 0 20 7 20 45 0 38 3 45 20 45 13 0
20 7 20 20 0 15 7 20 25 20 18 0 25 5 25 20 0 17 7 20 40 20 33 0 40 3 40 20
0 13 -7 20 -20 20 -17 0 -20 7 -20 45 0 38 3 45 20 45 13 0 20 -7 20 -20 0
-13 7 -20 20 -20 13 0 20 7 20 20 0 14 -7 20 -21 20 -15 0 -20 5 -17 23 2 14
10 22 23 22 13 0 21 -8 23 -22 4 -28 19 -29 52 -3 20 16 22 20 8 20 -12 0 -18
8 -18 25 0 18 5 25 20 25 14 0 20 -7 20 -21 0 -14 5 -19 18 -17 12 2 18 14 20
41 l3 37 -40 0 c-34 0 -41 -3 -41 -20 0 -15 -7 -20 -25 -20 -25 0 -26 1 -23
63 3 56 5 62 26 65 18 3 22 -1 22 -22 0 -25 2 -26 65 -26 58 0 65 -2 65 -20 0
-17 7 -20 45 -20 45 0 45 0 45 -34 0 -40 12 -51 52 -48 19 2 28 -2 28 -12 0
-8 14 -37 31 -65 28 -45 36 -51 65 -51 30 0 34 -3 34 -25 0 -21 -5 -25 -30
-25 -23 0 -30 -4 -30 -20 0 -16 7 -20 30 -20 23 0 30 4 30 20 0 17 7 20 45 20
38 0 45 -3 45 -19 0 -13 -8 -21 -22 -23 -15 -2 -24 -11 -26 -25 -3 -19 -10
-23 -43 -23 -32 0 -39 -3 -39 -20 0 -14 -7 -20 -23 -20 -23 0 -47 -17 -47 -32
0 -4 25 -8 55 -8 48 0 55 2 55 20 0 13 7 20 20 20 16 0 19 -8 22 -62 l3 -63
62 -3 c58 -3 62 -1 65 20 2 15 10 23 23 23 16 0 21 -8 23 -42 l3 -43 -45 0
c-39 0 -46 -3 -46 -20 0 -13 -7 -20 -20 -20 -13 0 -20 7 -20 20 0 18 -7 20
-65 20 -58 0 -65 2 -65 20 0 13 7 20 20 20 13 0 20 7 20 20 0 13 -7 20 -20 20
-13 0 -20 -7 -20 -20 0 -27 -40 -27 -47 0 -3 11 -11 20 -19 20 -7 0 -17 8 -23
17 -8 15 -12 16 -22 5 -11 -10 -10 -12 4 -12 11 0 17 -8 17 -25 0 -18 -5 -25
-20 -25 -13 0 -20 7 -20 20 0 26 -26 26 -40 0 -11 -20 -50 -28 -50 -11 0 5
-18 11 -40 13 l-40 4 0 -53 0 -53 -45 0 c-38 0 -45 3 -45 20 0 13 -7 20 -20
20 -13 0 -20 -7 -20 -19 0 -13 -8 -21 -22 -23 -15 -2 -24 -11 -26 -26 -3 -18
1 -22 22 -22 26 0 26 0 26 -85 0 -78 2 -85 20 -85 17 0 20 -7 20 -45 l0 -45
-65 0 -65 0 0 45 c0 38 3 45 20 45 13 0 20 -7 20 -20 0 -13 7 -20 20 -20 13 0
20 7 20 20 0 13 -7 20 -20 20 -13 0 -20 7 -20 20 0 18 -7 20 -66 20 -62 0 -65
1 -62 23 2 18 10 23 46 25 34 3 42 7 42 23 0 16 -7 19 -45 19 -38 0 -45 -3
-45 -20 0 -17 -7 -20 -40 -20 -33 0 -40 3 -40 20 0 17 -7 20 -45 20 -38 0 -45
-3 -45 -20 0 -17 7 -20 45 -20 41 0 45 -2 45 -25 0 -22 4 -25 40 -25 l40 0 0
-40 c0 -33 -3 -40 -20 -40 -19 0 -20 -7 -20 -90 0 -83 -1 -90 -20 -90 -13 0
-20 -7 -20 -20 0 -13 7 -20 20 -20 13 0 20 7 20 20 0 13 7 20 20 20 17 0 20 7
20 45 0 41 2 45 25 45 18 0 25 -5 25 -20 0 -13 7 -20 20 -20 13 0 20 7 20 20
0 18 7 20 65 20 58 0 65 2 65 20 0 13 7 20 20 20 15 0 20 7 20 25 0 18 5 25
20 25 13 0 20 7 20 20 0 13 -7 20 -20 20 -13 0 -20 7 -20 20 0 13 7 20 20 20
15 0 20 7 20 26 0 33 -33 30 -38 -4 -5 -32 -42 -30 -42 3 0 18 5 25 20 25 13
0 20 7 20 20 0 13 7 20 20 20 13 0 20 7 20 20 0 15 7 20 25 20 18 0 25 -5 25
-20 0 -13 7 -20 20 -20 13 0 20 -7 20 -20 0 -13 -7 -20 -20 -20 -15 0 -20 -7
-20 -25 0 -18 -5 -25 -20 -25 -13 0 -20 -7 -20 -20 0 -17 7 -20 40 -20 33 0
40 -3 40 -20 0 -13 -7 -20 -20 -20 -15 0 -20 -7 -20 -25 0 -18 -5 -25 -20 -25
-13 0 -20 -7 -20 -20 0 -13 7 -20 20 -20 13 0 20 -7 20 -20 0 -13 7 -20 20
-20 13 0 20 7 20 20 0 13 -7 20 -20 20 -13 0 -20 7 -20 20 0 13 7 20 20 20 15
0 20 7 20 25 0 18 5 25 20 25 16 0 19 8 22 63 3 56 5 62 26 65 18 3 22 -1 22
-22 0 -19 5 -26 20 -26 15 0 20 7 20 25 0 18 5 25 20 25 13 0 20 7 20 20 0 18
-7 20 -66 20 l-65 0 3 43 c2 35 7 43 26 45 18 3 22 -1 22 -22 0 -19 5 -26 20
-26 15 0 20 7 20 25 0 23 4 25 45 25 l45 0 0 -65 c0 -58 -2 -65 -20 -65 -18 0
-20 -7 -20 -65 0 -63 -1 -65 -25 -65 -18 0 -25 5 -25 20 0 13 -7 20 -20 20
-13 0 -20 -7 -20 -20 0 -13 -7 -20 -20 -20 -18 0 -20 -7 -20 -65 0 -58 2 -65
20 -65 17 0 20 7 20 40 0 33 3 40 20 40 16 0 19 -8 22 -62 2 -50 6 -63 21 -66
14 -3 17 4 17 42 0 42 2 46 25 46 33 0 35 37 3 42 -15 2 -23 10 -23 23 0 16 8
21 43 23 34 3 42 7 42 23 0 12 7 19 20 19 27 0 27 -36 0 -43 -17 -4 -20 -14
-20 -66 0 -54 2 -61 19 -61 13 0 21 -8 23 -22 2 -15 11 -24 26 -26 14 -2 22
-10 22 -23 0 -16 7 -19 40 -19 33 0 40 3 40 20 0 17 7 20 45 20 38 0 45 -3 45
-20 0 -13 7 -20 20 -20 13 0 20 7 20 20 0 13 -7 20 -20 20 -15 0 -20 7 -20 25
0 24 -2 25 -65 25 l-65 0 0 40 c0 33 3 40 20 40 13 0 20 -7 20 -20 0 -17 7
-20 45 -20 38 0 45 3 45 19 0 16 8 20 43 23 l42 3 3 88 c3 79 5 87 22 87 13 0
20 7 20 20 0 13 7 20 20 20 13 0 20 7 20 20 0 17 7 20 45 20 42 0 45 2 45 26
0 23 -3 25 -42 22 -36 -2 -44 -7 -46 -26 -5 -33 -42 -30 -42 4 0 23 -3 25 -42
22 -43 -3 -43 -3 -46 -45 -3 -43 -3 -43 -43 -43 -32 0 -39 3 -39 20 0 13 7 20
20 20 15 0 20 7 20 25 0 18 5 25 20 25 17 0 20 7 20 40 l0 40 45 0 45 0 0 45
c0 38 3 45 20 45 17 0 20 7 20 40 0 33 -3 40 -20 40 -17 0 -20 -7 -20 -40 0
-33 -3 -40 -20 -40 -17 0 -20 7 -20 39 0 33 -4 40 -22 43 -15 2 -24 11 -26 26
-3 18 1 22 22 22 19 0 26 5 26 20 0 13 7 20 20 20 13 0 20 -7 20 -20 0 -13 7
-20 20 -20 13 0 20 7 20 20 0 13 -7 20 -20 20 -13 0 -20 7 -20 20 0 13 -7 20
-20 20 -13 0 -20 -7 -20 -20 0 -15 -7 -20 -25 -20 -24 0 -25 2 -25 65 0 63 1
65 25 65 18 0 25 -5 25 -20 0 -13 7 -20 20 -20 13 0 20 -7 20 -20 0 -13 7 -20
19 -20 13 0 21 -8 23 -22 2 -15 11 -24 26 -26 18 -3 22 -10 22 -43 0 -32 3
-39 20 -39 17 0 20 7 20 40 0 33 -3 40 -20 40 -15 0 -20 7 -20 25 0 18 5 25
20 25 18 0 20 7 20 60 0 53 -2 60 -20 60 -15 0 -20 7 -20 25 0 18 5 25 20 25
18 0 20 7 20 65 0 58 -2 65 -20 65 -17 0 -20 7 -20 40 l0 40 -65 0 c-58 0 -65
-2 -65 -20 0 -17 -7 -20 -45 -20 -38 0 -45 3 -45 20 0 17 -7 20 -45 20 l-45 0
0 45 c0 38 -3 45 -20 45 -17 0 -20 -7 -20 -41 0 -32 4 -42 19 -46 11 -3 21
-13 24 -24 3 -11 14 -19 26 -19 30 0 28 -38 -1 -42 -15 -2 -23 -10 -23 -23 0
-13 8 -21 23 -23 18 -3 22 -10 22 -43 0 -32 3 -39 20 -39 15 0 20 -7 20 -25 0
-18 -5 -25 -20 -25 -13 0 -20 -7 -20 -20 0 -17 -7 -20 -45 -20 -41 0 -45 2
-45 25 0 18 5 25 20 25 18 0 20 7 20 60 0 53 -2 60 -20 60 -18 0 -20 7 -20 65
l0 65 -65 0 -65 0 0 65 c0 58 -2 65 -20 65 -17 0 -20 -7 -20 -40 0 -36 -2 -40
-25 -40 -18 0 -25 5 -25 20 0 14 -7 20 -21 20 -18 0 -20 -5 -17 -42 3 -43 3
-43 46 -46 42 -3 42 -3 42 -43 0 -32 3 -39 20 -39 14 0 20 -7 20 -21 0 -12 8
-23 19 -26 11 -3 21 -13 24 -24 3 -11 14 -19 26 -19 20 0 21 -5 21 -84 0 -80
-1 -85 -23 -88 -14 -2 -23 -11 -25 -26 -4 -30 -36 -25 -40 6 -2 14 -10 22 -23
22 -12 0 -19 7 -19 19 0 13 -8 21 -22 23 -15 2 -23 10 -23 23 0 13 8 21 23 23
18 3 22 10 22 43 0 32 3 39 20 39 13 0 20 7 20 20 0 13 -7 20 -20 20 -13 0
-20 -7 -20 -20 0 -13 -7 -20 -20 -20 -13 0 -20 -7 -20 -20 0 -17 -7 -20 -45
-20 l-45 0 0 40 c0 33 3 40 20 40 15 0 20 7 20 25 0 33 -37 35 -42 3 -2 -15
-10 -23 -23 -23 -13 0 -21 8 -23 23 -2 14 -10 22 -23 22 -12 0 -19 7 -19 20 0
13 7 20 20 20 13 0 20 7 20 19 0 13 8 21 23 23 20 3 22 9 25 66 l3 62 39 0
c36 0 40 3 40 25 0 23 -4 25 -40 25 -34 0 -40 -3 -40 -21 0 -12 -8 -23 -20
-26 -16 -4 -20 -14 -20 -44 0 -35 -3 -39 -25 -39 -18 0 -25 5 -25 20 0 13 -7
20 -20 20 -17 0 -20 7 -20 45 0 38 3 45 19 45 13 0 21 -8 23 -22 5 -34 38 -37
38 -4 0 19 -5 26 -20 26 -13 0 -20 7 -20 20 0 17 -7 20 -40 20 l-40 0 0 -65
c0 -58 2 -65 20 -65 13 0 20 -7 20 -20 0 -13 -7 -20 -19 -20 -13 0 -21 -8 -23
-22 -2 -15 -11 -24 -25 -26 -19 -3 -23 1 -23 22 0 19 5 26 20 26 13 0 20 7 20
20 0 13 -7 20 -20 20 -13 0 -20 -7 -20 -20 0 -13 -7 -20 -20 -20 -17 0 -20 7
-20 40 0 33 3 40 20 40 15 0 20 7 20 25 0 18 -5 25 -20 25 -13 0 -20 7 -20 20
0 18 -7 20 -65 20 -58 0 -65 -2 -65 -20 0 -18 -7 -20 -65 -20 l-65 0 0 65 c0
58 2 65 20 65 13 0 20 7 20 20 0 13 -7 20 -20 20 -13 0 -20 -7 -20 -20z m90
-220 c0 -13 7 -20 20 -20 13 0 20 7 20 20 0 17 7 20 45 20 l45 0 0 -40 c0 -36
-2 -40 -25 -40 -18 0 -25 5 -25 20 0 13 -7 20 -20 20 -13 0 -20 -7 -20 -20 0
-13 -7 -20 -20 -20 -13 0 -20 7 -20 20 0 15 -7 20 -25 20 -23 0 -25 -4 -25
-45 0 -38 -3 -45 -20 -45 -17 0 -20 7 -20 45 0 38 3 45 20 45 13 0 20 7 20 20
0 15 7 20 25 20 18 0 25 -5 25 -20z m40 -130 c0 -13 7 -20 20 -20 13 0 20 7
20 20 0 15 7 20 25 20 18 0 25 -5 25 -20 0 -15 -7 -20 -25 -20 -18 0 -25 -5
-25 -20 0 -13 -7 -20 -20 -20 -17 0 -20 -7 -20 -45 0 -38 -3 -45 -20 -45 -13
0 -20 7 -20 20 0 18 -7 20 -65 20 -63 0 -65 1 -65 25 0 18 5 25 20 25 13 0 20
7 20 20 0 13 7 20 20 20 13 0 20 -7 20 -20 0 -17 7 -20 45 -20 38 0 45 3 45
20 0 13 -7 20 -20 20 -13 0 -20 7 -20 20 0 13 7 20 20 20 13 0 20 -7 20 -20z
m170 -20 c0 -33 -3 -40 -20 -40 -17 0 -20 7 -20 40 0 33 3 40 20 40 17 0 20
-7 20 -40z m130 20 c0 -13 -7 -20 -20 -20 -13 0 -20 -7 -20 -20 0 -15 -7 -20
-25 -20 -22 0 -25 4 -25 40 l0 40 45 0 c38 0 45 -3 45 -20z m348 -62 c-2 -36
-7 -44 -25 -46 -19 -3 -23 1 -23 22 0 19 -5 26 -20 26 -13 0 -20 7 -20 20 0
17 7 20 46 20 l45 0 -3 -42z m344 0 c2 -36 7 -44 26 -46 18 -3 22 -10 22 -43
0 -35 -3 -39 -25 -39 -33 0 -35 -37 -2 -42 18 -2 23 -10 25 -45 3 -40 1 -43
-22 -43 -19 0 -26 5 -26 20 0 13 -7 20 -20 20 -17 0 -20 7 -20 45 0 38 -3 45
-19 45 -13 0 -21 -8 -23 -22 -2 -15 -10 -23 -23 -23 -16 0 -21 8 -23 43 l-3
42 45 0 46 0 0 45 c0 38 -3 45 -20 45 -13 0 -20 7 -20 20 0 17 7 20 39 20 40
0 40 0 43 -42z m-1212 -68 c0 -18 7 -20 65 -20 58 0 65 -2 65 -20 0 -17 7 -20
45 -20 l45 0 0 -45 0 -45 -64 0 -65 0 -3 -42 c-3 -43 -3 -43 -45 -46 -35 -3
-43 -7 -43 -23 0 -12 -7 -19 -20 -19 -15 0 -20 7 -20 25 0 18 5 25 20 25 13 0
20 7 20 20 0 13 -7 20 -20 20 -13 0 -20 7 -20 20 0 13 -7 20 -20 20 -13 0 -20
-7 -20 -20 0 -17 -7 -20 -45 -20 -38 0 -45 3 -45 20 0 17 7 20 45 20 41 0 45
2 45 25 0 18 5 25 20 25 13 0 20 7 20 20 0 13 7 20 20 20 13 0 20 7 20 20 0
13 -7 20 -20 20 -13 0 -20 7 -20 20 0 13 7 20 20 20 13 0 20 -7 20 -20z m910
0 c0 -13 -7 -20 -20 -20 -13 0 -20 7 -20 20 0 13 7 20 20 20 13 0 20 -7 20
-20z m130 -170 c0 -13 -7 -20 -20 -20 -13 0 -20 7 -20 20 0 13 7 20 20 20 13
0 20 -7 20 -20z m-90 -39 c0 -13 8 -21 23 -23 14 -2 23 -11 25 -25 3 -19 10
-23 43 -23 32 0 39 -3 39 -20 0 -17 -7 -20 -40 -20 -33 0 -40 3 -40 20 0 15
-7 20 -25 20 -18 0 -25 -5 -25 -20 0 -13 -7 -20 -20 -20 -15 0 -20 -7 -20 -25
0 -18 -5 -25 -20 -25 -15 0 -20 7 -20 25 0 18 5 25 20 25 13 0 20 7 20 20 0
13 -7 20 -20 20 -15 0 -20 7 -20 25 0 18 5 25 20 25 15 0 20 -7 20 -25 0 -18
5 -25 20 -25 13 0 20 7 20 19 0 10 -9 21 -20 24 -12 3 -20 14 -20 26 0 14 6
21 20 21 13 0 20 -7 20 -19z m-820 -46 c0 -18 -5 -25 -20 -25 -13 0 -20 -7
-20 -20 0 -13 -7 -20 -20 -20 -13 0 -20 7 -20 20 0 13 7 20 20 20 15 0 20 7
20 25 0 18 5 25 20 25 15 0 20 -7 20 -25z m950 -150 l0 -45 -40 0 c-33 0 -40
3 -40 20 0 13 7 20 20 20 15 0 20 7 20 25 0 18 5 25 20 25 17 0 20 -7 20 -45z
m-130 -25 c0 -13 -7 -20 -20 -20 -13 0 -20 7 -20 20 0 13 7 20 20 20 13 0 20
-7 20 -20z m-430 -130 c0 -15 7 -20 25 -20 18 0 25 -5 25 -20 0 -15 -7 -20
-25 -20 -18 0 -25 5 -25 20 0 13 -7 20 -20 20 -13 0 -20 7 -20 20 0 13 7 20
20 20 13 0 20 -7 20 -20z m130 -40 c0 -13 -7 -20 -20 -20 -13 0 -20 7 -20 20
0 13 7 20 20 20 13 0 20 -7 20 -20z m172 -42 c2 -19 10 -24 46 -26 l42 -3 0
-85 0 -84 -45 0 c-38 0 -45 3 -45 20 0 17 -7 20 -40 20 -36 0 -40 3 -40 25 0
23 4 25 40 25 33 0 40 3 40 20 0 13 -7 20 -20 20 -17 0 -20 7 -20 45 0 38 3
45 19 45 13 0 21 -8 23 -22z m178 -3 c0 -20 -5 -25 -25 -25 -18 0 -25 5 -25
18 0 24 8 32 32 32 13 0 18 -7 18 -25z m-610 -45 c0 -13 -7 -20 -20 -20 -13 0
-20 7 -20 20 0 13 7 20 20 20 13 0 20 -7 20 -20z m690 -125 l0 -65 -65 0 -65
0 0 58 c0 32 3 62 7 65 3 4 33 7 65 7 l58 0 0 -65z m-210 -90 c0 -20 -5 -25
-25 -25 -20 0 -25 5 -25 25 0 20 5 25 25 25 20 0 25 -5 25 -25z"/>
<path d="M1480 1080 c0 -13 7 -20 20 -20 13 0 20 7 20 20 0 13 -7 20 -20 20
-13 0 -20 -7 -20 -20z"/>
<path d="M360 1040 c0 -17 7 -20 40 -20 33 0 40 3 40 20 0 17 -7 20 -40 20
-33 0 -40 -3 -40 -20z"/>
<path d="M270 990 c0 -13 7 -20 20 -20 13 0 20 -7 20 -20 0 -15 7 -20 25 -20
23 0 25 4 25 40 l0 40 -45 0 c-38 0 -45 -3 -45 -20z"/>
<path d="M1310 300 c0 -13 7 -20 20 -20 13 0 20 7 20 20 0 13 -7 20 -20 20
-13 0 -20 -7 -20 -20z"/>
<path d="M530 1575 l0 -45 105 0 105 0 0 25 c0 18 -5 25 -20 25 -13 0 -20 7
-20 20 0 17 -7 20 -40 20 -33 0 -40 -3 -40 -20 0 -15 -7 -20 -25 -20 -18 0
-25 5 -25 20 0 13 -7 20 -20 20 -17 0 -20 -7 -20 -45z"/>
<path d="M830 1600 c0 -13 -7 -20 -20 -20 -15 0 -20 -7 -20 -25 0 -18 5 -25
20 -25 15 0 20 7 20 26 0 21 4 25 23 22 14 -2 23 -11 25 -25 2 -15 10 -23 23
-23 12 0 19 -7 19 -20 0 -13 7 -20 20 -20 17 0 20 7 20 46 0 41 2 45 23 42 20
-3 22 -9 25 -65 l3 -63 39 0 c34 0 40 -3 40 -21 0 -12 8 -23 20 -26 16 -4 20
-14 20 -44 0 -35 3 -39 25 -39 23 0 25 4 25 40 0 36 -2 40 -25 40 -23 0 -25 4
-25 45 l0 45 -40 0 c-33 0 -40 3 -40 20 0 16 8 19 63 22 l62 3 3 43 c3 39 1
42 -22 42 -19 0 -26 -5 -26 -20 0 -17 -7 -20 -40 -20 -33 0 -40 3 -40 20 0 17
-7 20 -45 20 -38 0 -45 -3 -45 -20 0 -13 -7 -20 -20 -20 -13 0 -20 7 -20 20 0
17 -7 20 -45 20 -38 0 -45 -3 -45 -20z"/>
<path d="M1310 1470 l0 -150 150 0 150 0 0 150 0 150 -150 0 -150 0 0 -150z
m258 -2 l3 -108 -111 0 -110 0 0 110 0 111 108 -3 107 -3 3 -107z"/>
<path d="M1392 1468 l3 -63 63 -3 62 -3 0 66 0 65 -65 0 -66 0 3 -62z"/>
<path d="M444 1565 c-4 -9 -2 -21 4 -27 15 -15 44 -1 40 19 -4 23 -36 29 -44
8z"/>
<path d="M1227 1573 c-4 -3 -7 -15 -7 -25 0 -11 -7 -18 -20 -18 -17 0 -20 -7
-20 -40 l0 -40 40 0 40 0 0 65 c0 48 -4 65 -13 65 -8 0 -17 -3 -20 -7z"/>
<path d="M10 1230 c0 -33 3 -40 20 -40 17 0 20 7 20 40 0 33 -3 40 -20 40 -17
0 -20 -7 -20 -40z"/>
<path d="M920 1250 c0 -13 7 -20 20 -20 13 0 20 7 20 20 0 13 -7 20 -20 20
-13 0 -20 -7 -20 -20z"/>
<path d="M790 1050 c0 -5 9 -10 20 -10 11 0 20 5 20 10 0 6 -9 10 -20 10 -11
0 -20 -4 -20 -10z"/>
<path d="M1090 1040 c0 -13 7 -20 20 -20 13 0 20 7 20 20 0 13 -7 20 -20 20
-13 0 -20 -7 -20 -20z"/>
<path d="M730 978 c-132 -67 -132 -249 0 -315 24 -13 60 -23 80 -23 20 0 56
10 80 23 132 66 132 248 0 315 -24 12 -60 22 -80 22 -20 0 -56 -10 -80 -22z
m164 -89 c17 -18 36 -74 36 -105 0 -16 -10 -28 -30 -39 -35 -18 -40 -19 -40
-2 0 8 -18 12 -54 13 -40 0 -53 -3 -49 -13 7 -17 -1 -16 -37 2 -20 10 -30 23
-30 38 0 40 20 96 40 110 26 18 146 15 164 -4z"/>
<path d="M750 810 c0 -13 7 -20 20 -20 13 0 20 7 20 20 0 13 -7 20 -20 20 -13
0 -20 -7 -20 -20z"/>
<path d="M830 810 c0 -13 7 -20 20 -20 13 0 20 7 20 20 0 13 -7 20 -20 20 -13
0 -20 -7 -20 -20z"/>
<path d="M50 840 l0 -40 45 0 c38 0 45 3 45 20 0 13 -7 20 -20 20 -13 0 -20 7
-20 20 0 15 -7 20 -25 20 -22 0 -25 -4 -25 -40z"/>
<path d="M530 779 c0 -12 -8 -23 -20 -26 -11 -3 -20 -14 -20 -24 0 -14 -7 -19
-25 -19 -18 0 -25 -5 -25 -20 0 -15 7 -20 25 -20 18 0 25 5 25 20 0 13 7 20
20 20 15 0 20 7 20 25 0 18 5 25 20 25 13 0 20 7 20 20 0 13 -7 20 -20 20 -14
0 -20 -7 -20 -21z"/>
<path d="M10 730 c0 -13 7 -20 20 -20 17 0 20 -7 20 -39 0 -33 4 -40 23 -43
14 -2 23 -11 25 -25 2 -15 10 -23 23 -23 17 0 19 -7 19 -65 0 -58 -2 -65 -20
-65 -17 0 -20 -7 -20 -40 0 -33 3 -40 20 -40 13 0 20 7 20 20 0 13 7 20 20 20
13 0 20 -7 20 -20 0 -15 7 -20 25 -20 18 0 25 5 25 20 0 15 -7 20 -26 20 -23
0 -25 3 -22 43 2 34 7 42 23 42 13 0 21 -8 23 -22 3 -23 5 -23 153 -23 l149 0
0 25 c0 18 5 25 20 25 13 0 20 7 20 20 0 13 7 20 20 20 17 0 20 7 20 40 0 33
-3 40 -20 40 -13 0 -20 -7 -20 -20 0 -13 -7 -20 -20 -20 -15 0 -20 7 -20 25 0
18 5 25 20 25 13 0 20 7 20 20 0 13 7 20 19 20 21 0 33 39 19 64 -18 31 -38
18 -38 -24 0 -33 -3 -40 -19 -40 -13 0 -21 -8 -23 -22 -2 -19 -10 -24 -45 -26
-43 -3 -43 -3 -43 -43 0 -32 -3 -39 -20 -39 -13 0 -20 -7 -20 -20 0 -13 -7
-20 -20 -20 -13 0 -20 7 -20 20 0 15 -7 20 -25 20 -18 0 -25 5 -25 20 0 17 7
20 45 20 38 0 45 3 45 20 0 17 -7 20 -45 20 -38 0 -45 -3 -45 -20 0 -13 -7
-20 -20 -20 -13 0 -20 -7 -20 -20 0 -17 -7 -20 -45 -20 -38 0 -45 3 -45 19 0
13 8 21 22 23 34 5 37 38 4 38 -19 0 -26 -5 -26 -20 0 -13 -7 -20 -20 -20 -15
0 -20 7 -20 25 0 18 5 25 20 25 17 0 20 7 20 40 0 36 3 40 25 40 18 0 25 -5
25 -20 0 -13 7 -20 20 -20 13 0 20 -7 20 -20 0 -13 7 -20 20 -20 13 0 20 7 20
20 0 13 -7 20 -20 20 -13 0 -20 7 -20 20 0 13 7 20 20 20 13 0 20 7 20 20 0
13 -7 20 -20 20 -13 0 -20 -7 -20 -20 0 -13 -7 -20 -20 -20 -13 0 -20 7 -20
20 0 15 -7 20 -25 20 -18 0 -25 -5 -25 -20 0 -13 -7 -20 -20 -20 -13 0 -20 7
-20 20 0 13 -7 20 -20 20 -13 0 -20 -7 -20 -20 0 -15 -7 -20 -25 -20 -18 0
-25 5 -25 20 0 13 -7 20 -20 20 -13 0 -20 -7 -20 -20z m130 -40 c0 -13 -7 -20
-20 -20 -13 0 -20 7 -20 20 0 13 7 20 20 20 13 0 20 -7 20 -20z m390 -150 c0
-33 -3 -40 -20 -40 -17 0 -20 7 -20 40 0 33 3 40 20 40 17 0 20 -7 20 -40z
m-220 -20 c0 -13 -7 -20 -20 -20 -13 0 -20 7 -20 20 0 13 7 20 20 20 13 0 20
-7 20 -20z"/>
<path d="M1527 663 c-4 -3 -7 -33 -7 -65 l0 -58 45 0 45 0 0 65 0 65 -38 0
c-21 0 -42 -3 -45 -7z"/>
<path d="M660 640 c0 -5 7 -10 16 -10 8 0 12 5 9 10 -3 6 -10 10 -16 10 -5 0
-9 -4 -9 -10z"/>
<path d="M10 475 c0 -98 1 -105 20 -105 19 0 20 7 20 105 0 98 -1 105 -20 105
-19 0 -20 -7 -20 -105z"/>
<path d="M1570 391 c0 -13 -8 -21 -22 -23 -15 -2 -23 -10 -23 -23 0 -13 8 -21
23 -23 14 -2 22 -10 22 -23 0 -12 7 -19 20 -19 18 0 20 7 20 65 0 58 -2 65
-20 65 -13 0 -20 -7 -20 -19z"/>
<path d="M10 170 l0 -150 150 0 150 0 0 150 0 150 -150 0 -150 0 0 -150z m260
0 l0 -111 -107 3 -108 3 -3 108 -3 107 111 0 110 0 0 -110z"/>
<path d="M100 175 l0 -65 65 0 66 0 -3 63 -3 62 -62 3 -63 3 0 -66z"/>
<path d="M1480 215 c0 -18 -5 -25 -20 -25 -13 0 -20 -7 -20 -20 0 -17 7 -20
40 -20 33 0 40 -3 40 -19 0 -13 8 -21 23 -23 18 -2 23 -10 25 -45 3 -35 7 -43
23 -43 17 0 19 8 19 85 0 78 -2 85 -20 85 -13 0 -20 -7 -20 -20 0 -15 -7 -20
-25 -20 -23 0 -25 4 -25 45 0 38 -3 45 -20 45 -15 0 -20 -7 -20 -25z"/>
<path d="M577 103 c-4 -3 -7 -15 -7 -25 0 -14 -8 -18 -40 -18 -33 0 -40 -3
-40 -20 0 -18 7 -20 60 -20 53 0 60 2 60 20 0 17 7 20 45 20 38 0 45 -3 45
-20 0 -17 7 -20 45 -20 38 0 45 3 45 19 0 13 -8 21 -22 23 -15 2 -24 11 -26
26 -3 21 -8 22 -81 22 -43 0 -81 -3 -84 -7z"/>
<path d="M1394 95 c-8 -20 4 -35 27 -35 12 0 19 -7 19 -20 0 -17 7 -20 40 -20
33 0 40 3 40 20 0 13 -7 20 -20 20 -15 0 -20 7 -20 25 0 23 -4 25 -40 25 -26
0 -43 -5 -46 -15z"/>
<path d="M830 40 c0 -13 7 -20 20 -20 13 0 20 7 20 20 0 13 -7 20 -20 20 -13
0 -20 -7 -20 -20z"/>
<path d="M920 40 c0 -13 7 -20 20 -20 13 0 20 7 20 20 0 13 -7 20 -20 20 -13
0 -20 -7 -20 -20z"/>
</g>
</svg>
